<svg width="144" height="144" viewBox="0 0 144 144" fill="none" xmlns="http://www.w3.org/2000/svg">
<rect x="0.5" y="73" width="4" height="7" fill="#4E4E4E"/>
<rect x="6.5" y="73" width="4" height="7" fill="#4E4E4E"/>
<rect x="12.5" y="73" width="4" height="7" fill="#4E4E4E"/>
<rect x="18.5" y="73" width="4" height="7" fill="#4E4E4E"/>
<rect x="24.5" y="68" width="4" height="13" fill="#4E4E4E"/>
<rect x="30.5" y="59" width="4" height="22" fill="#4E4E4E"/>
<rect x="36.5" y="65" width="4" height="17" fill="#4E4E4E"/>
<rect x="42.5" y="74" width="4" height="9" fill="#4E4E4E"/>
<rect x="48.5" y="74" width="4" height="9" fill="#4E4E4E"/>
<rect x="54.5" y="71" width="4" height="24" fill="#4E4E4E"/>
<rect x="60.5" y="78" width="4" height="45" fill="#4E4E4E"/>
<rect x="66.5" y="71" width="4" height="62" fill="#4E4E4E"/>
<rect x="72.5" y="46" width="4" height="46" fill="#4E4E4E"/>
<rect x="78.5" y="9" width="4" height="69" fill="#4E4E4E"/>
<rect x="84.5" y="33" width="4" height="53" fill="#4E4E4E"/>
<rect x="90.5" y="76" width="4" height="10" fill="#4E4E4E"/>
<rect x="96.5" y="76" width="4" height="10" fill="#4E4E4E"/>
<rect x="102.5" y="74" width="4" height="12" fill="#4E4E4E"/>
<rect x="108.5" y="74" width="4" height="7" fill="#4E4E4E"/>
<rect x="114.5" y="74" width="4" height="7" fill="#4E4E4E"/>
<rect x="120.5" y="74" width="4" height="7" fill="#4E4E4E"/>
<rect x="126.5" y="74" width="4" height="7" fill="#4E4E4E"/>
<rect x="132.5" y="74" width="4" height="7" fill="#4E4E4E"/>
<rect x="138.5" y="74" width="4" height="7" fill="#4E4E4E"/>
<path d="M143 72C143 111.212 111.212 143 72 143C32.7878 143 1 111.212 1 72C1 32.7878 32.7878 1 72 1C111.212 1 143 32.7878 143 72Z" stroke="#4E4E4E" stroke-width="2"/>
</svg>
