<svg width="310" height="110" viewBox="0 0 310 110" fill="none" xmlns="http://www.w3.org/2000/svg">
<path d="M47.0013 7C47.0013 7 87.0933 57 154.748 57C222.404 57 265.001 7 265.001 7" stroke="black" stroke-width="13" stroke-linecap="round"/>
<line x1="43.7184" y1="8.58617" x2="8.58751" y2="24.2829" stroke="black" stroke-width="13" stroke-linecap="round"/>
<line x1="113.411" y1="59.0663" x2="91.068" y2="90.3929" stroke="black" stroke-width="13" stroke-linecap="round"/>
<line x1="70.0315" y1="37.1913" x2="43.1913" y2="64.8603" stroke="black" stroke-width="13" stroke-linecap="round"/>
<line x1="153.078" y1="64.5828" x2="152.585" y2="103.058" stroke="black" stroke-width="13" stroke-linecap="round"/>
<line x1="6.5" y1="-6.5" x2="44.9781" y2="-6.5" transform="matrix(0.913009 0.40794 0.40794 -0.913009 262.893 0)" stroke="black" stroke-width="13" stroke-linecap="round"/>
<line x1="6.5" y1="-6.5" x2="44.9781" y2="-6.5" transform="matrix(0.821852 0.569702 0.569702 -0.821852 234.002 28)" stroke="black" stroke-width="13" stroke-linecap="round"/>
<line x1="6.5" y1="-6.5" x2="44.9781" y2="-6.5" transform="matrix(0.580668 0.81414 0.81414 -0.580668 196.002 50)" stroke="black" stroke-width="13" stroke-linecap="round"/>
</svg>
