<svg width="27" height="27" viewBox="0 0 27 27" fill="none" xmlns="http://www.w3.org/2000/svg">
<rect width="27" height="27" rx="4" fill="#2C5AFF"/>
<path d="M16.2112 23.36H17.8112V24H9.81125V23.36H11.4112V9.92H10.1312V9.28H16.2112V23.36ZM16.4992 5.056C16.4992 5.824 16.2219 6.48533 15.6672 7.04C15.1339 7.57333 14.4726 7.84 13.6832 7.84C12.9152 7.84 12.2539 7.57333 11.6992 7.04C11.1446 6.48533 10.8672 5.824 10.8672 5.056C10.8672 4.26667 11.1446 3.59467 11.6992 3.04C12.2539 2.48533 12.9152 2.208 13.6832 2.208C14.4726 2.208 15.1339 2.48533 15.6672 3.04C16.2219 3.59467 16.4992 4.26667 16.4992 5.056Z" fill="white"/>
</svg>
